<svg width="402" height="402" viewBox="0 0 402 402" fill="none" xmlns="http://www.w3.org/2000/svg">
<rect width="402" height="402" rx="81" fill="#215AD7"/>
<path d="M76.4656 263V139.364H127.538C136.795 139.364 144.784 141.175 151.505 144.797C158.266 148.379 163.478 153.389 167.14 159.829C170.803 166.228 172.634 173.674 172.634 182.165C172.634 190.698 170.763 198.163 167.02 204.562C163.317 210.921 158.025 215.852 151.142 219.353C144.26 222.854 136.09 224.605 126.633 224.605H95.1198V201.061H121.079C125.586 201.061 129.349 200.276 132.368 198.707C135.426 197.137 137.741 194.944 139.31 192.126C140.88 189.269 141.665 185.949 141.665 182.165C141.665 178.342 140.88 175.042 139.31 172.265C137.741 169.448 135.426 167.274 132.368 165.745C129.309 164.216 125.546 163.451 121.079 163.451H106.348V263H76.4656ZM187.364 139.364H224.37L255.763 215.912H257.211L288.603 139.364H325.61V263H296.512V187.055H295.486L265.784 262.215H247.19L217.488 186.633H216.462V263H187.364V139.364Z" fill="#FDFEFF"/>
</svg>
